<?xml version="1.0" encoding="UTF-8" standalone="no"?>
<svg
   xmlns:dc="http://purl.org/dc/elements/1.1/"
   xmlns:cc="http://creativecommons.org/ns#"
   xmlns:rdf="http://www.w3.org/1999/02/22-rdf-syntax-ns#"
   xmlns:svg="http://www.w3.org/2000/svg"
   xmlns="http://www.w3.org/2000/svg"
   xmlns:sodipodi="http://sodipodi.sourceforge.net/DTD/sodipodi-0.dtd"
   xmlns:inkscape="http://www.inkscape.org/namespaces/inkscape"
   width="765"
   height="990"
   viewBox="0 0 612 792.00114"
   version="1.2"
   id="svg2"
   inkscape:version="0.48.4 r9939"
   sodipodi:docname="squares-2cm.svg">
  <metadata
     id="metadata260">
    <rdf:RDF>
      <cc:Work
         rdf:about="">
        <dc:format>image/svg+xml</dc:format>
        <dc:type
           rdf:resource="http://purl.org/dc/dcmitype/StillImage" />
      </cc:Work>
    </rdf:RDF>
  </metadata>
  <sodipodi:namedview
     pagecolor="#ffffff"
     bordercolor="#666666"
     borderopacity="1"
     objecttolerance="10"
     gridtolerance="10"
     guidetolerance="10"
     inkscape:pageopacity="0"
     inkscape:pageshadow="2"
     inkscape:window-width="1858"
     inkscape:window-height="1058"
     id="namedview258"
     showgrid="false"
     inkscape:zoom="4.8546165"
     inkscape:cx="122.45757"
     inkscape:cy="8.3815744"
     inkscape:window-x="54"
     inkscape:window-y="-8"
     inkscape:window-maximized="1"
     inkscape:current-layer="g16"
     inkscape:document-units="cm"
     units="cm" />
  <title
     id="title4">Qt SVG Document</title>
  <desc
     id="desc6">Generated with Qt</desc>
  <defs
     id="defs8" />
  <g
     id="g10"
     style="fill:none;stroke:#000000;stroke-width:1;stroke-linecap:square;stroke-linejoin:bevel"
     transform="translate(0,352.00114)">
    <g
       font-size="8.25"
       font-weight="400"
       font-style="normal"
       id="g12"
       style="font-size:8.25px;font-style:normal;font-weight:400;fill:#ffffff;fill-opacity:1;stroke:none;font-family:MS Shell Dlg 2"
       transform="matrix(1.6809281,0,0,1.7941758,0.03806967,-349.39802)">
      <path
         vector-effect="none"
         d="M 0,0 360,0 360,440 0,440 0,0"
         id="path14"
         inkscape:connector-curvature="0"
         style="fill-rule:evenodd" />
    </g>
    <g
       transform="translate(18.973651,44.745763)"
       font-size="8.25"
       font-weight="400"
       font-style="normal"
       id="g16"
       style="font-size:8.25px;font-style:normal;font-weight:400;fill:none;stroke:#000000;stroke-width:1;stroke-linecap:round;stroke-linejoin:round;stroke-opacity:1;font-family:MS Shell Dlg 2">
      <polyline
         vector-effect="non-scaling-stroke"
         points="6,433 45,433 "
         id="polyline18"
         style="fill:none"
         transform="matrix(1.4580533,0,0,1.4561166,19.162164,-332.46052)" />
      <polyline
         vector-effect="non-scaling-stroke"
         points="45,433 45,394 "
         id="polyline20"
         style="fill:none"
         transform="matrix(1.4580533,0,0,1.4561166,19.162164,-332.46052)" />
      <polyline
         vector-effect="non-scaling-stroke"
         points="45,394 6,394 "
         id="polyline22"
         style="fill:none"
         transform="matrix(1.4580533,0,0,1.4561166,19.162164,-332.46052)" />
      <polyline
         vector-effect="non-scaling-stroke"
         points="6,394 6,433 "
         id="polyline24"
         style="fill:none"
         transform="matrix(1.4580533,0,0,1.4561166,19.162164,-332.46052)" />
      <polyline
         vector-effect="non-scaling-stroke"
         points="84,433 123,433 "
         id="polyline26"
         style="fill:none"
         transform="matrix(1.4580533,0,0,1.4561166,19.162164,-332.46052)" />
      <polyline
         vector-effect="non-scaling-stroke"
         points="123,433 123,394 "
         id="polyline28"
         style="fill:none"
         transform="matrix(1.4580533,0,0,1.4561166,19.162164,-332.46052)" />
      <polyline
         vector-effect="non-scaling-stroke"
         points="123,394 84,394 "
         id="polyline30"
         style="fill:none"
         transform="matrix(1.4580533,0,0,1.4561166,19.162164,-332.46052)" />
      <polyline
         vector-effect="non-scaling-stroke"
         points="84,394 84,433 "
         id="polyline32"
         style="fill:none"
         transform="matrix(1.4580533,0,0,1.4561166,19.162164,-332.46052)" />
      <polyline
         vector-effect="non-scaling-stroke"
         points="161,433 200,433 "
         id="polyline34"
         style="fill:none"
         transform="matrix(1.4580533,0,0,1.4561166,19.162164,-332.46052)" />
      <polyline
         vector-effect="non-scaling-stroke"
         points="200,433 200,394 "
         id="polyline36"
         style="fill:none"
         transform="matrix(1.4580533,0,0,1.4561166,19.162164,-332.46052)" />
      <polyline
         vector-effect="non-scaling-stroke"
         points="200,394 161,394 "
         id="polyline38"
         style="fill:none"
         transform="matrix(1.4580533,0,0,1.4561166,19.162164,-332.46052)" />
      <polyline
         vector-effect="non-scaling-stroke"
         points="161,394 161,433 "
         id="polyline40"
         style="fill:none"
         transform="matrix(1.4580533,0,0,1.4561166,19.162164,-332.46052)" />
      <polyline
         vector-effect="non-scaling-stroke"
         points="239,433 278,433 "
         id="polyline42"
         style="fill:none"
         transform="matrix(1.4580533,0,0,1.4561166,19.162164,-332.46052)" />
      <polyline
         vector-effect="non-scaling-stroke"
         points="278,433 278,394 "
         id="polyline44"
         style="fill:none"
         transform="matrix(1.4580533,0,0,1.4561166,19.162164,-332.46052)" />
      <polyline
         vector-effect="non-scaling-stroke"
         points="278,394 239,394 "
         id="polyline46"
         style="fill:none"
         transform="matrix(1.4580533,0,0,1.4561166,19.162164,-332.46052)" />
      <polyline
         vector-effect="non-scaling-stroke"
         points="239,394 239,433 "
         id="polyline48"
         style="fill:none"
         transform="matrix(1.4580533,0,0,1.4561166,19.162164,-332.46052)" />
      <polyline
         vector-effect="non-scaling-stroke"
         points="317,433 356,433 "
         id="polyline50"
         style="fill:none"
         transform="matrix(1.4580533,0,0,1.4561166,19.162164,-332.46052)" />
      <polyline
         vector-effect="non-scaling-stroke"
         points="356,433 356,394 "
         id="polyline52"
         style="fill:none"
         transform="matrix(1.4580533,0,0,1.4561166,19.162164,-332.46052)" />
      <polyline
         vector-effect="non-scaling-stroke"
         points="356,394 317,394 "
         id="polyline54"
         style="fill:none"
         transform="matrix(1.4580533,0,0,1.4561166,19.162164,-332.46052)" />
      <polyline
         vector-effect="non-scaling-stroke"
         points="317,394 317,433 "
         id="polyline56"
         style="fill:none"
         transform="matrix(1.4580533,0,0,1.4561166,19.162164,-332.46052)" />
      <polyline
         vector-effect="non-scaling-stroke"
         points="6,355 45,355 "
         id="polyline58"
         style="fill:none"
         transform="matrix(1.4580533,0,0,1.4561166,19.162164,-332.46052)" />
      <polyline
         vector-effect="non-scaling-stroke"
         points="45,355 45,316 "
         id="polyline60"
         style="fill:none"
         transform="matrix(1.4580533,0,0,1.4561166,19.162164,-332.46052)" />
      <polyline
         vector-effect="non-scaling-stroke"
         points="45,316 6,316 "
         id="polyline62"
         style="fill:none"
         transform="matrix(1.4580533,0,0,1.4561166,19.162164,-332.46052)" />
      <polyline
         vector-effect="non-scaling-stroke"
         points="6,316 6,355 "
         id="polyline64"
         style="fill:none"
         transform="matrix(1.4580533,0,0,1.4561166,19.162164,-332.46052)" />
      <polyline
         vector-effect="non-scaling-stroke"
         points="84,355 123,355 "
         id="polyline66"
         style="fill:none"
         transform="matrix(1.4580533,0,0,1.4561166,19.162164,-332.46052)" />
      <polyline
         vector-effect="non-scaling-stroke"
         points="123,355 123,316 "
         id="polyline68"
         style="fill:none"
         transform="matrix(1.4580533,0,0,1.4561166,19.162164,-332.46052)" />
      <polyline
         vector-effect="non-scaling-stroke"
         points="123,316 84,316 "
         id="polyline70"
         style="fill:none"
         transform="matrix(1.4580533,0,0,1.4561166,19.162164,-332.46052)" />
      <polyline
         vector-effect="non-scaling-stroke"
         points="84,316 84,355 "
         id="polyline72"
         style="fill:none"
         transform="matrix(1.4580533,0,0,1.4561166,19.162164,-332.46052)" />
      <polyline
         vector-effect="non-scaling-stroke"
         points="161,355 200,355 "
         id="polyline74"
         style="fill:none"
         transform="matrix(1.4580533,0,0,1.4561166,19.162164,-332.46052)" />
      <polyline
         vector-effect="non-scaling-stroke"
         points="200,355 200,316 "
         id="polyline76"
         style="fill:none"
         transform="matrix(1.4580533,0,0,1.4561166,19.162164,-332.46052)" />
      <polyline
         vector-effect="non-scaling-stroke"
         points="200,316 161,316 "
         id="polyline78"
         style="fill:none"
         transform="matrix(1.4580533,0,0,1.4561166,19.162164,-332.46052)" />
      <polyline
         vector-effect="non-scaling-stroke"
         points="161,316 161,355 "
         id="polyline80"
         style="fill:none"
         transform="matrix(1.4580533,0,0,1.4561166,19.162164,-332.46052)" />
      <polyline
         vector-effect="non-scaling-stroke"
         points="239,355 278,355 "
         id="polyline82"
         style="fill:none"
         transform="matrix(1.4580533,0,0,1.4561166,19.162164,-332.46052)" />
      <polyline
         vector-effect="non-scaling-stroke"
         points="278,355 278,316 "
         id="polyline84"
         style="fill:none"
         transform="matrix(1.4580533,0,0,1.4561166,19.162164,-332.46052)" />
      <polyline
         vector-effect="non-scaling-stroke"
         points="278,316 239,316 "
         id="polyline86"
         style="fill:none"
         transform="matrix(1.4580533,0,0,1.4561166,19.162164,-332.46052)" />
      <polyline
         vector-effect="non-scaling-stroke"
         points="239,316 239,355 "
         id="polyline88"
         style="fill:none"
         transform="matrix(1.4580533,0,0,1.4561166,19.162164,-332.46052)" />
      <polyline
         vector-effect="non-scaling-stroke"
         points="317,355 356,355 "
         id="polyline90"
         style="fill:none"
         transform="matrix(1.4580533,0,0,1.4561166,19.162164,-332.46052)" />
      <polyline
         vector-effect="non-scaling-stroke"
         points="356,355 356,316 "
         id="polyline92"
         style="fill:none"
         transform="matrix(1.4580533,0,0,1.4561166,19.162164,-332.46052)" />
      <polyline
         vector-effect="non-scaling-stroke"
         points="356,316 317,316 "
         id="polyline94"
         style="fill:none"
         transform="matrix(1.4580533,0,0,1.4561166,19.162164,-332.46052)" />
      <polyline
         vector-effect="non-scaling-stroke"
         points="317,316 317,355 "
         id="polyline96"
         style="fill:none"
         transform="matrix(1.4580533,0,0,1.4561166,19.162164,-332.46052)" />
      <polyline
         vector-effect="non-scaling-stroke"
         points="6,44 45,44 "
         id="polyline98"
         style="fill:none"
         transform="matrix(1.4580533,0,0,1.4561166,19.162164,-332.46052)" />
      <polyline
         vector-effect="non-scaling-stroke"
         points="45,44 45,5 "
         id="polyline100"
         style="fill:none"
         transform="matrix(1.4580533,0,0,1.4561166,19.162164,-332.46052)" />
      <polyline
         vector-effect="non-scaling-stroke"
         points="45,5 6,5 "
         id="polyline102"
         style="fill:none"
         transform="matrix(1.4580533,0,0,1.4561166,19.162164,-332.46052)" />
      <polyline
         vector-effect="non-scaling-stroke"
         points="6,5 6,44 "
         id="polyline104"
         style="fill:none"
         transform="matrix(1.4580533,0,0,1.4561166,19.162164,-332.46052)" />
      <polyline
         vector-effect="non-scaling-stroke"
         points="84,44 123,44 "
         id="polyline106"
         style="fill:none"
         transform="matrix(1.4580533,0,0,1.4561166,19.162164,-332.46052)" />
      <polyline
         vector-effect="non-scaling-stroke"
         points="123,44 123,5 "
         id="polyline108"
         style="fill:none"
         transform="matrix(1.4580533,0,0,1.4561166,19.162164,-332.46052)" />
      <polyline
         vector-effect="non-scaling-stroke"
         points="123,5 84,5 "
         id="polyline110"
         style="fill:none"
         transform="matrix(1.4580533,0,0,1.4561166,19.162164,-332.46052)" />
      <polyline
         vector-effect="non-scaling-stroke"
         points="84,5 84,44 "
         id="polyline112"
         style="fill:none"
         transform="matrix(1.4580533,0,0,1.4561166,19.162164,-332.46052)" />
      <polyline
         vector-effect="non-scaling-stroke"
         points="161,44 200,44 "
         id="polyline114"
         style="fill:none"
         transform="matrix(1.4580533,0,0,1.4561166,19.162164,-332.46052)" />
      <polyline
         vector-effect="non-scaling-stroke"
         points="200,44 200,5 "
         id="polyline116"
         style="fill:none"
         transform="matrix(1.4580533,0,0,1.4561166,19.162164,-332.46052)" />
      <polyline
         vector-effect="non-scaling-stroke"
         points="200,5 161,5 "
         id="polyline118"
         style="fill:none"
         transform="matrix(1.4580533,0,0,1.4561166,19.162164,-332.46052)" />
      <polyline
         vector-effect="non-scaling-stroke"
         points="161,5 161,44 "
         id="polyline120"
         style="fill:none"
         transform="matrix(1.4580533,0,0,1.4561166,19.162164,-332.46052)" />
      <polyline
         vector-effect="non-scaling-stroke"
         points="239,44 278,44 "
         id="polyline122"
         style="fill:none"
         transform="matrix(1.4580533,0,0,1.4561166,19.162164,-332.46052)" />
      <polyline
         vector-effect="non-scaling-stroke"
         points="278,44 278,5 "
         id="polyline124"
         style="fill:none"
         transform="matrix(1.4580533,0,0,1.4561166,19.162164,-332.46052)" />
      <polyline
         vector-effect="non-scaling-stroke"
         points="278,5 239,5 "
         id="polyline126"
         style="fill:none"
         transform="matrix(1.4580533,0,0,1.4561166,19.162164,-332.46052)" />
      <polyline
         vector-effect="non-scaling-stroke"
         points="239,5 239,44 "
         id="polyline128"
         style="fill:none"
         transform="matrix(1.4580533,0,0,1.4561166,19.162164,-332.46052)" />
      <polyline
         vector-effect="non-scaling-stroke"
         points="317,44 356,44 "
         id="polyline130"
         style="fill:none"
         transform="matrix(1.4580533,0,0,1.4561166,19.162164,-332.46052)" />
      <polyline
         vector-effect="non-scaling-stroke"
         points="356,44 356,5 "
         id="polyline132"
         style="fill:none"
         transform="matrix(1.4580533,0,0,1.4561166,19.162164,-332.46052)" />
      <polyline
         vector-effect="non-scaling-stroke"
         points="356,5 317,5 "
         id="polyline134"
         style="fill:none"
         transform="matrix(1.4580533,0,0,1.4561166,19.162164,-332.46052)" />
      <polyline
         vector-effect="non-scaling-stroke"
         points="317,5 317,44 "
         id="polyline136"
         style="fill:none"
         transform="matrix(1.4580533,0,0,1.4561166,19.162164,-332.46052)" />
      <polyline
         vector-effect="non-scaling-stroke"
         points="6,83 45,83 "
         id="polyline138"
         style="fill:none"
         transform="matrix(1.4580533,0,0,1.4561166,19.162164,-332.46052)" />
      <polyline
         vector-effect="non-scaling-stroke"
         points="45,83 45,122 "
         id="polyline140"
         style="fill:none"
         transform="matrix(1.4580533,0,0,1.4561166,19.162164,-332.46052)" />
      <polyline
         vector-effect="non-scaling-stroke"
         points="45,122 6,122 "
         id="polyline142"
         style="fill:none"
         transform="matrix(1.4580533,0,0,1.4561166,19.162164,-332.46052)" />
      <polyline
         vector-effect="non-scaling-stroke"
         points="6,122 6,83 "
         id="polyline144"
         style="fill:none"
         transform="matrix(1.4580533,0,0,1.4561166,19.162164,-332.46052)" />
      <polyline
         vector-effect="non-scaling-stroke"
         points="84,83 123,83 "
         id="polyline146"
         style="fill:none"
         transform="matrix(1.4580533,0,0,1.4561166,19.162164,-332.46052)" />
      <polyline
         vector-effect="non-scaling-stroke"
         points="123,83 123,122 "
         id="polyline148"
         style="fill:none"
         transform="matrix(1.4580533,0,0,1.4561166,19.162164,-332.46052)" />
      <polyline
         vector-effect="non-scaling-stroke"
         points="123,122 84,122 "
         id="polyline150"
         style="fill:none"
         transform="matrix(1.4580533,0,0,1.4561166,19.162164,-332.46052)" />
      <polyline
         vector-effect="non-scaling-stroke"
         points="84,122 84,83 "
         id="polyline152"
         style="fill:none"
         transform="matrix(1.4580533,0,0,1.4561166,19.162164,-332.46052)" />
      <polyline
         vector-effect="non-scaling-stroke"
         points="161,83 200,83 "
         id="polyline154"
         style="fill:none"
         transform="matrix(1.4580533,0,0,1.4561166,19.162164,-332.46052)" />
      <polyline
         vector-effect="non-scaling-stroke"
         points="200,83 200,122 "
         id="polyline156"
         style="fill:none"
         transform="matrix(1.4580533,0,0,1.4561166,19.162164,-332.46052)" />
      <polyline
         vector-effect="non-scaling-stroke"
         points="200,122 161,122 "
         id="polyline158"
         style="fill:none"
         transform="matrix(1.4580533,0,0,1.4561166,19.162164,-332.46052)" />
      <polyline
         vector-effect="non-scaling-stroke"
         points="161,122 161,83 "
         id="polyline160"
         style="fill:none"
         transform="matrix(1.4580533,0,0,1.4561166,19.162164,-332.46052)" />
      <polyline
         vector-effect="non-scaling-stroke"
         points="239,83 278,83 "
         id="polyline162"
         style="fill:none"
         transform="matrix(1.4580533,0,0,1.4561166,19.162164,-332.46052)" />
      <polyline
         vector-effect="non-scaling-stroke"
         points="278,83 278,122 "
         id="polyline164"
         style="fill:none"
         transform="matrix(1.4580533,0,0,1.4561166,19.162164,-332.46052)" />
      <polyline
         vector-effect="non-scaling-stroke"
         points="278,122 239,122 "
         id="polyline166"
         style="fill:none"
         transform="matrix(1.4580533,0,0,1.4561166,19.162164,-332.46052)" />
      <polyline
         vector-effect="non-scaling-stroke"
         points="239,122 239,83 "
         id="polyline168"
         style="fill:none"
         transform="matrix(1.4580533,0,0,1.4561166,19.162164,-332.46052)" />
      <polyline
         vector-effect="non-scaling-stroke"
         points="317,83 356,83 "
         id="polyline170"
         style="fill:none"
         transform="matrix(1.4580533,0,0,1.4561166,19.162164,-332.46052)" />
      <polyline
         vector-effect="non-scaling-stroke"
         points="356,83 356,122 "
         id="polyline172"
         style="fill:none"
         transform="matrix(1.4580533,0,0,1.4561166,19.162164,-332.46052)" />
      <polyline
         vector-effect="non-scaling-stroke"
         points="356,122 317,122 "
         id="polyline174"
         style="fill:none"
         transform="matrix(1.4580533,0,0,1.4561166,19.162164,-332.46052)" />
      <polyline
         vector-effect="non-scaling-stroke"
         points="317,122 317,83 "
         id="polyline176"
         style="fill:none"
         transform="matrix(1.4580533,0,0,1.4561166,19.162164,-332.46052)" />
      <polyline
         vector-effect="non-scaling-stroke"
         points="317,161 356,161 "
         id="polyline178"
         style="fill:none"
         transform="matrix(1.4580533,0,0,1.4561166,19.162164,-332.46052)" />
      <polyline
         vector-effect="non-scaling-stroke"
         points="356,161 356,200 "
         id="polyline180"
         style="fill:none"
         transform="matrix(1.4580533,0,0,1.4561166,19.162164,-332.46052)" />
      <polyline
         vector-effect="non-scaling-stroke"
         points="356,200 317,200 "
         id="polyline182"
         style="fill:none"
         transform="matrix(1.4580533,0,0,1.4561166,19.162164,-332.46052)" />
      <polyline
         vector-effect="non-scaling-stroke"
         points="317,200 317,161 "
         id="polyline184"
         style="fill:none"
         transform="matrix(1.4580533,0,0,1.4561166,19.162164,-332.46052)" />
      <polyline
         vector-effect="non-scaling-stroke"
         points="278,161 239,161 "
         id="polyline186"
         style="fill:none"
         transform="matrix(1.4580533,0,0,1.4561166,19.162164,-332.46052)" />
      <polyline
         vector-effect="non-scaling-stroke"
         points="239,161 239,200 "
         id="polyline188"
         style="fill:none"
         transform="matrix(1.4580533,0,0,1.4561166,19.162164,-332.46052)" />
      <polyline
         vector-effect="non-scaling-stroke"
         points="239,200 278,200 "
         id="polyline190"
         style="fill:none"
         transform="matrix(1.4580533,0,0,1.4561166,19.162164,-332.46052)" />
      <polyline
         vector-effect="non-scaling-stroke"
         points="278,200 278,161 "
         id="polyline192"
         style="fill:none"
         transform="matrix(1.4580533,0,0,1.4561166,19.162164,-332.46052)" />
      <polyline
         vector-effect="non-scaling-stroke"
         points="200,161 161,161 "
         id="polyline194"
         style="fill:none"
         transform="matrix(1.4580533,0,0,1.4561166,19.162164,-332.46052)" />
      <polyline
         vector-effect="non-scaling-stroke"
         points="161,161 161,200 "
         id="polyline196"
         style="fill:none"
         transform="matrix(1.4580533,0,0,1.4561166,19.162164,-332.46052)" />
      <polyline
         vector-effect="non-scaling-stroke"
         points="161,200 200,200 "
         id="polyline198"
         style="fill:none"
         transform="matrix(1.4580533,0,0,1.4561166,19.162164,-332.46052)" />
      <polyline
         vector-effect="non-scaling-stroke"
         points="200,200 200,161 "
         id="polyline200"
         style="fill:none"
         transform="matrix(1.4580533,0,0,1.4561166,19.162164,-332.46052)" />
      <polyline
         vector-effect="non-scaling-stroke"
         points="123,161 84,161 "
         id="polyline202"
         style="fill:none"
         transform="matrix(1.4580533,0,0,1.4561166,19.162164,-332.46052)" />
      <polyline
         vector-effect="non-scaling-stroke"
         points="84,161 84,200 "
         id="polyline204"
         style="fill:none"
         transform="matrix(1.4580533,0,0,1.4561166,19.162164,-332.46052)" />
      <polyline
         vector-effect="non-scaling-stroke"
         points="84,200 123,200 "
         id="polyline206"
         style="fill:none"
         transform="matrix(1.4580533,0,0,1.4561166,19.162164,-332.46052)" />
      <polyline
         vector-effect="non-scaling-stroke"
         points="123,200 123,161 "
         id="polyline208"
         style="fill:none"
         transform="matrix(1.4580533,0,0,1.4561166,19.162164,-332.46052)" />
      <polyline
         vector-effect="non-scaling-stroke"
         points="45,161 6,161 "
         id="polyline210"
         style="fill:none"
         transform="matrix(1.4580533,0,0,1.4561166,19.162164,-332.46052)" />
      <polyline
         vector-effect="non-scaling-stroke"
         points="6,161 6,200 "
         id="polyline212"
         style="fill:none"
         transform="matrix(1.4580533,0,0,1.4561166,19.162164,-332.46052)" />
      <polyline
         vector-effect="non-scaling-stroke"
         points="6,200 45,200 "
         id="polyline214"
         style="fill:none"
         transform="matrix(1.4580533,0,0,1.4561166,19.162164,-332.46052)" />
      <polyline
         vector-effect="non-scaling-stroke"
         points="45,200 45,161 "
         id="polyline216"
         style="fill:none"
         transform="matrix(1.4580533,0,0,1.4561166,19.162164,-332.46052)" />
      <polyline
         vector-effect="non-scaling-stroke"
         points="6,239 45,239 "
         id="polyline218"
         style="fill:none"
         transform="matrix(1.4580533,0,0,1.4561166,19.162164,-332.46052)" />
      <polyline
         vector-effect="non-scaling-stroke"
         points="45,239 45,278 "
         id="polyline220"
         style="fill:none"
         transform="matrix(1.4580533,0,0,1.4561166,19.162164,-332.46052)" />
      <polyline
         vector-effect="non-scaling-stroke"
         points="45,278 6,278 "
         id="polyline222"
         style="fill:none"
         transform="matrix(1.4580533,0,0,1.4561166,19.162164,-332.46052)" />
      <polyline
         vector-effect="non-scaling-stroke"
         points="6,278 6,239 "
         id="polyline224"
         style="fill:none"
         transform="matrix(1.4580533,0,0,1.4561166,19.162164,-332.46052)" />
      <polyline
         vector-effect="non-scaling-stroke"
         points="84,239 123,239 "
         id="polyline226"
         style="fill:none"
         transform="matrix(1.4580533,0,0,1.4561166,19.162164,-332.46052)" />
      <polyline
         vector-effect="non-scaling-stroke"
         points="123,239 123,278 "
         id="polyline228"
         style="fill:none"
         transform="matrix(1.4580533,0,0,1.4561166,19.162164,-332.46052)" />
      <polyline
         vector-effect="non-scaling-stroke"
         points="123,278 84,278 "
         id="polyline230"
         style="fill:none"
         transform="matrix(1.4580533,0,0,1.4561166,19.162164,-332.46052)" />
      <polyline
         vector-effect="non-scaling-stroke"
         points="84,278 84,239 "
         id="polyline232"
         style="fill:none"
         transform="matrix(1.4580533,0,0,1.4561166,19.162164,-332.46052)" />
      <polyline
         vector-effect="non-scaling-stroke"
         points="161,239 200,239 "
         id="polyline234"
         style="fill:none"
         transform="matrix(1.4580533,0,0,1.4561166,19.162164,-332.46052)" />
      <polyline
         vector-effect="non-scaling-stroke"
         points="200,239 200,278 "
         id="polyline236"
         style="fill:none"
         transform="matrix(1.4580533,0,0,1.4561166,19.162164,-332.46052)" />
      <polyline
         vector-effect="non-scaling-stroke"
         points="200,278 161,278 "
         id="polyline238"
         style="fill:none"
         transform="matrix(1.4580533,0,0,1.4561166,19.162164,-332.46052)" />
      <polyline
         vector-effect="non-scaling-stroke"
         points="161,278 161,239 "
         id="polyline240"
         style="fill:none"
         transform="matrix(1.4580533,0,0,1.4561166,19.162164,-332.46052)" />
      <polyline
         vector-effect="non-scaling-stroke"
         points="239,239 278,239 "
         id="polyline242"
         style="fill:none"
         transform="matrix(1.4580533,0,0,1.4561166,19.162164,-332.46052)" />
      <polyline
         vector-effect="non-scaling-stroke"
         points="278,239 278,278 "
         id="polyline244"
         style="fill:none"
         transform="matrix(1.4580533,0,0,1.4561166,19.162164,-332.46052)" />
      <polyline
         vector-effect="non-scaling-stroke"
         points="278,278 239,278 "
         id="polyline246"
         style="fill:none"
         transform="matrix(1.4580533,0,0,1.4561166,19.162164,-332.46052)" />
      <polyline
         vector-effect="non-scaling-stroke"
         points="239,278 239,239 "
         id="polyline248"
         style="fill:none"
         transform="matrix(1.4580533,0,0,1.4561166,19.162164,-332.46052)" />
      <polyline
         vector-effect="non-scaling-stroke"
         points="317,239 356,239 "
         id="polyline250"
         style="fill:none"
         transform="matrix(1.4580533,0,0,1.4561166,19.162164,-332.46052)" />
      <polyline
         vector-effect="non-scaling-stroke"
         points="356,239 356,278 "
         id="polyline252"
         style="fill:none"
         transform="matrix(1.4580533,0,0,1.4561166,19.162164,-332.46052)" />
      <polyline
         vector-effect="non-scaling-stroke"
         points="356,278 317,278 "
         id="polyline254"
         style="fill:none"
         transform="matrix(1.4580533,0,0,1.4561166,19.162164,-332.46052)" />
      <polyline
         vector-effect="non-scaling-stroke"
         points="317,278 317,239 "
         id="polyline256"
         style="fill:none"
         transform="matrix(1.4580533,0,0,1.4561166,19.162164,-332.46052)" />
      <rect
         style="fill:#000000;fill-opacity:1;stroke:#000000;stroke-width:6.83947706;stroke-linecap:round;stroke-linejoin:round;stroke-miterlimit:4;stroke-opacity:1;stroke-dasharray:none"
         id="rect3239"
         width="49.589268"
         height="49.54845"
         x="31.569023"
         y="-208.00002" />
      <rect
         style="fill:#000000;fill-opacity:1;stroke:#000000;stroke-width:6.85945797;stroke-linecap:round;stroke-linejoin:round;stroke-miterlimit:4;stroke-opacity:1;stroke-dasharray:none"
         id="rect3239-1"
         width="49.734077"
         height="49.69326"
         x="145.22922"
         y="-208.11" />
      <rect
         style="fill:#000000;fill-opacity:1;stroke:#000000;stroke-width:6.81949615;stroke-linecap:round;stroke-linejoin:round;stroke-miterlimit:4;stroke-opacity:1;stroke-dasharray:none"
         id="rect3239-7"
         width="49.444454"
         height="49.403641"
         x="257.41776"
         y="-207.89001" />
      <rect
         style="fill:#000000;fill-opacity:1;stroke:#000000;stroke-width:6.80943584;stroke-linecap:round;stroke-linejoin:round;stroke-miterlimit:4;stroke-opacity:1;stroke-dasharray:none"
         id="rect3239-4"
         width="49.287472"
         height="49.414875"
         x="371.30328"
         y="-207.89507" />
      <rect
         style="fill:#000000;fill-opacity:1;stroke:#000000;stroke-width:6.78946209;stroke-linecap:round;stroke-linejoin:round;stroke-miterlimit:4;stroke-opacity:1;stroke-dasharray:none"
         id="rect3239-0"
         width="48.980114"
         height="49.433674"
         x="485.18369"
         y="-207.90503" />
      <rect
         style="fill:#000000;fill-opacity:1;stroke:#000000;stroke-width:6.80950165;stroke-linecap:round;stroke-linejoin:round;stroke-miterlimit:4;stroke-opacity:1;stroke-dasharray:none"
         id="rect3239-9"
         width="49.289658"
         height="49.413635"
         x="31.554029"
         y="-321.63425"
         ry="0" />
      <rect
         style="fill:#000000;fill-opacity:1;stroke:#000000;stroke-width:6.78946209;stroke-linecap:round;stroke-linejoin:round;stroke-miterlimit:4;stroke-opacity:1;stroke-dasharray:none"
         id="rect3239-48"
         width="48.980114"
         height="49.433674"
         x="145.43449"
         y="-321.64429" />
      <rect
         style="fill:#000000;fill-opacity:1;stroke:#000000;stroke-width:6.80931807;stroke-linecap:round;stroke-linejoin:round;stroke-miterlimit:4;stroke-opacity:1;stroke-dasharray:none"
         id="rect3239-8"
         width="48.960258"
         height="49.743401"
         x="257.89328"
         y="-321.63434" />
      <rect
         style="fill:#000000;fill-opacity:1;stroke:#000000;stroke-width:6.80950165;stroke-linecap:round;stroke-linejoin:round;stroke-miterlimit:4;stroke-opacity:1;stroke-dasharray:none"
         id="rect3239-2"
         width="49.289658"
         height="49.413635"
         x="371.30331"
         y="-321.63425" />
      <rect
         style="fill:#000000;fill-opacity:1;stroke:#000000;stroke-width:6.78946209;stroke-linecap:round;stroke-linejoin:round;stroke-miterlimit:4;stroke-opacity:1;stroke-dasharray:none"
         id="rect3239-45"
         width="48.980114"
         height="49.433674"
         x="485.18369"
         y="-321.64429" />
      <rect
         style="fill:#000000;fill-opacity:1;stroke:#000000;stroke-width:6.78952074;stroke-linecap:round;stroke-linejoin:round;stroke-miterlimit:4;stroke-opacity:1;stroke-dasharray:none"
         id="rect3239-5"
         width="49.144848"
         height="49.268822"
         x="32.024593"
         y="-94.165802" />
      <rect
         style="fill:#000000;fill-opacity:1;stroke:#000000;stroke-width:6.81947136;stroke-linecap:round;stroke-linejoin:round;stroke-miterlimit:4;stroke-opacity:1;stroke-dasharray:none"
         id="rect3239-17"
         width="49.27969"
         height="49.568455"
         x="145.44951"
         y="-94.150826" />
      <rect
         style="fill:#000000;fill-opacity:1;stroke:#000000;stroke-width:6.84946346;stroke-linecap:round;stroke-linejoin:round;stroke-miterlimit:4;stroke-opacity:1;stroke-dasharray:none"
         id="rect3239-11"
         width="49.579281"
         height="49.703255"
         x="257.43277"
         y="-94.615738" />
      <rect
         style="fill:#000000;fill-opacity:1;stroke:#000000;stroke-width:6.83945227;stroke-linecap:round;stroke-linejoin:round;stroke-miterlimit:4;stroke-opacity:1;stroke-dasharray:none"
         id="rect3239-52"
         width="49.4245"
         height="49.713268"
         x="371.31824"
         y="-94.620743" />
      <rect
         style="fill:#000000;fill-opacity:1;stroke:#000000;stroke-width:6.84928083;stroke-linecap:round;stroke-linejoin:round;stroke-miterlimit:4;stroke-opacity:1;stroke-dasharray:none"
         id="rect3239-76"
         width="49.249878"
         height="50.03302"
         x="485.21359"
         y="-94.615845" />
      <rect
         style="fill:#000000;fill-opacity:1;stroke:#000000;stroke-width:6.84938097;stroke-linecap:round;stroke-linejoin:round;stroke-miterlimit:4;stroke-opacity:1;stroke-dasharray:none"
         id="rect3239-14"
         width="49.908947"
         height="49.373756"
         x="31.573969"
         y="19.123434" />
      <rect
         style="fill:#000000;fill-opacity:1;stroke:#000000;stroke-width:6.82942438;stroke-linecap:round;stroke-linejoin:round;stroke-miterlimit:4;stroke-opacity:1;stroke-dasharray:none"
         id="rect3239-23"
         width="49.269737"
         height="49.723293"
         x="145.45447"
         y="19.113457" />
      <rect
         style="fill:#000000;fill-opacity:1;stroke:#000000;stroke-width:6.83947706;stroke-linecap:round;stroke-linejoin:round;stroke-miterlimit:4;stroke-opacity:1;stroke-dasharray:none"
         id="rect3239-22"
         width="49.589268"
         height="49.54845"
         x="257.42776"
         y="19.118483" />
      <rect
         style="fill:#000000;fill-opacity:1;stroke:#000000;stroke-width:6.80950165;stroke-linecap:round;stroke-linejoin:round;stroke-miterlimit:4;stroke-opacity:1;stroke-dasharray:none"
         id="rect3239-16"
         width="49.289658"
         height="49.413635"
         x="371.30328"
         y="19.103495" />
      <rect
         style="fill:#000000;fill-opacity:1;stroke:#000000;stroke-width:6.86926222;stroke-linecap:round;stroke-linejoin:round;stroke-miterlimit:4;stroke-opacity:1;stroke-dasharray:none"
         id="rect3239-85"
         width="49.394691"
         height="50.177834"
         x="485.2236"
         y="18.653446" />
      <rect
         style="fill:#000000;fill-opacity:1;stroke:#000000;stroke-width:6.79948997;stroke-linecap:round;stroke-linejoin:round;stroke-miterlimit:4;stroke-opacity:1;stroke-dasharray:none"
         id="rect3239-761"
         width="49.13488"
         height="49.423645"
         x="32.029575"
         y="131.39793" />
      <rect
         style="fill:#000000;fill-opacity:1;stroke:#000000;stroke-width:6.82948256;stroke-linecap:round;stroke-linejoin:round;stroke-miterlimit:4;stroke-opacity:1;stroke-dasharray:none"
         id="rect3239-89"
         width="49.434471"
         height="49.558445"
         x="145.4545"
         y="131.41293" />
      <rect
         style="fill:#000000;fill-opacity:1;stroke:#000000;stroke-width:6.81947136;stroke-linecap:round;stroke-linejoin:round;stroke-miterlimit:4;stroke-opacity:1;stroke-dasharray:none"
         id="rect3239-27"
         width="49.27969"
         height="49.568455"
         x="257.89835"
         y="131.40793" />
      <rect
         style="fill:#000000;fill-opacity:1;stroke:#000000;stroke-width:6.80950165;stroke-linecap:round;stroke-linejoin:round;stroke-miterlimit:4;stroke-opacity:1;stroke-dasharray:none"
         id="rect3239-95"
         width="49.289658"
         height="49.413635"
         x="371.78381"
         y="131.40294" />
      <rect
         style="fill:#000000;fill-opacity:1;stroke:#000000;stroke-width:6.82947445;stroke-linecap:round;stroke-linejoin:round;stroke-miterlimit:4;stroke-opacity:1;stroke-dasharray:none"
         id="rect3239-43"
         width="49.59927"
         height="49.393661"
         x="485.2037"
         y="131.41293" />
      <rect
         style="fill:#000000;fill-opacity:1;stroke:#000000;stroke-width:6.83947706;stroke-linecap:round;stroke-linejoin:round;stroke-miterlimit:4;stroke-opacity:1;stroke-dasharray:none"
         id="rect3239-12"
         width="49.589268"
         height="49.54845"
         x="31.569017"
         y="244.67723" />
      <rect
         style="fill:#000000;fill-opacity:1;stroke:#000000;stroke-width:6.80949354;stroke-linecap:round;stroke-linejoin:round;stroke-miterlimit:4;stroke-opacity:1;stroke-dasharray:none"
         id="rect3239-3"
         width="49.45446"
         height="49.248852"
         x="145.4445"
         y="245.14214" />
      <rect
         style="fill:#000000;fill-opacity:1;stroke:#000000;stroke-width:6.78952074;stroke-linecap:round;stroke-linejoin:round;stroke-miterlimit:4;stroke-opacity:1;stroke-dasharray:none"
         id="rect3239-34"
         width="49.144848"
         height="49.268822"
         x="257.88336"
         y="245.13216" />
      <rect
         style="fill:#000000;fill-opacity:1;stroke:#000000;stroke-width:6.87941408;stroke-linecap:round;stroke-linejoin:round;stroke-miterlimit:4;stroke-opacity:1;stroke-dasharray:none"
         id="rect3239-113"
         width="49.714123"
         height="50.002888"
         x="371.33826"
         y="244.69719" />
      <rect
         style="fill:#000000;fill-opacity:1;stroke:#000000;stroke-width:6.83943558;stroke-linecap:round;stroke-linejoin:round;stroke-miterlimit:4;stroke-opacity:1;stroke-dasharray:none"
         id="rect3239-87"
         width="49.754101"
         height="49.383701"
         x="485.20868"
         y="245.1571" />
    </g>
  </g>
</svg>
